# xmcd CD database file
#
# Track frame offsets:
#	150
#	24415
#	48699
#	76377
#	96923
#	112150
#	133303
#	148202
#	173710
#	185638
#
# Disc length: 2809 seconds
#
# Revision: 0
# Processed by: cddbd v1.5PL3 Copyright (c) Steve Scherf et al.
# Submitted via: CDex 1.51
#
DISCID=950af70a
DTITLE=Arnell Y Orquestra - Mi Gusta Bo
DYEAR=2004
DGENRE=Salsa
TTITLE0=Adorno di mi Pais
TTITLE1=Wind Beneath my Wings
TTITLE2=Mi Gusta Bo
TTITLE3=Un Kurason mas, Un Bida mas
TTITLE4=Yudami
TTITLE5=E Baile di Plú
TTITLE6=Dos Rosas
TTITLE7=Dolor di Amor
TTITLE8=Dile que por mi no tema
TTITLE9=Ola Wawa
EXTD=YEAR: 2004
EXTT0=
EXTT1=
EXTT2=
EXTT3=
EXTT4=
EXTT5=
EXTT6=
EXTT7=
EXTT8=
EXTT9=
PLAYORDER=
